<svg xmlns="http://www.w3.org/2000/svg" width="36" height="22.086" viewBox="0 0 36 22.086"><g transform="translate(-15.999 -6836.414)"><g transform="translate(20.839 6836.5)"><path d="M12.5,10.5V8.914a1.5,1.5,0,0,1,1.5-1.5h0a1.5,1.5,0,0,1,1.5,1.5V10.5" fill="none" stroke="#397c46" stroke-linecap="round" stroke-linejoin="round" stroke-width="1"/><path d="M15.5,10.5V8.914a1.5,1.5,0,0,1,1.5-1.5h0a1.5,1.5,0,0,1,1.5,1.5V10.5" fill="none" stroke="#397c46" stroke-linecap="round" stroke-linejoin="round" stroke-width="1"/><path d="M18.5,10.5V9.914a1.5,1.5,0,0,1,1.5-1.5h0a1.5,1.5,0,0,1,1.5,1.5v4.429a7.622,7.622,0,0,1-2.232,5.389h0A6.036,6.036,0,0,1,15,21.5h0a6.036,6.036,0,0,1-4.268-1.768l-6.1-6.1a1.6,1.6,0,0,1,0-2.258h0a1.6,1.6,0,0,1,1.935-.249L9.5,12.84V1.914A1.5,1.5,0,0,1,11,.414h0a1.5,1.5,0,0,1,1.5,1.5V9.5" fill="none" stroke="#397c46" stroke-linecap="round" stroke-linejoin="round" stroke-width="1"/></g><path d="M-11091-111.5l4-3.5v2.5h3v2h-3v2.5Z" transform="translate(11107 6959.5)" fill="#397c46"/><path d="M0,3.5,4,7V4.5H7v-2H4V0Z" transform="translate(51.999 6851.501) rotate(180)" fill="#397c46"/></g></svg>