<svg xmlns="http://www.w3.org/2000/svg" width="70" height="70" viewBox="0 0 70 70"><g transform="translate(-199 -678)"><circle cx="35" cy="35" r="35" transform="translate(199 678)" fill="#fff"/><g transform="translate(-99.611 832.167)"><path d="M317.471-141.167h19.28a3.86,3.86,0,0,1,3.86,3.86h0v36.14h-27v-36.14a3.86,3.86,0,0,1,3.86-3.86Z" fill="#fff"/><rect width="7" height="7" rx="1.75" transform="translate(319.111 -125.667)" fill="#fff"/><path d="M324.361-118.667h-3.5a1.752,1.752,0,0,1-1.75-1.75v-3.5a1.753,1.753,0,0,1,1.75-1.75h3.5a1.753,1.753,0,0,1,1.75,1.75v3.5A1.752,1.752,0,0,1,324.361-118.667Zm-3.5-5.25h0v3.5h3.5v-3.5Z" fill="#397c46"/><rect width="7" height="7" rx="1.75" transform="translate(319.111 -135.167)" fill="#fff"/><path d="M324.361-128.167h-3.5a1.752,1.752,0,0,1-1.75-1.75v-3.5a1.753,1.753,0,0,1,1.75-1.75h3.5a1.753,1.753,0,0,1,1.75,1.75v3.5A1.752,1.752,0,0,1,324.361-128.167Zm-3.5-5.25h0v3.5h3.5v-3.5Z" fill="#397c46"/><rect width="7" height="7" rx="1.75" transform="translate(328.111 -125.667)" fill="#fff"/><path d="M333.361-118.667h-3.5a1.752,1.752,0,0,1-1.75-1.75v-3.5a1.753,1.753,0,0,1,1.75-1.75h3.5a1.753,1.753,0,0,1,1.75,1.75v3.5A1.752,1.752,0,0,1,333.361-118.667Zm-3.5-5.25h0v3.5h3.5v-3.5Z" fill="#397c46"/><rect width="7" height="7" rx="1.75" transform="translate(328.111 -135.167)" fill="#fff"/><path d="M333.361-128.167h-3.5a1.752,1.752,0,0,1-1.75-1.75v-3.5a1.753,1.753,0,0,1,1.75-1.75h3.5a1.753,1.753,0,0,1,1.75,1.75v3.5A1.752,1.752,0,0,1,333.361-128.167Zm-3.5-5.25h0v3.5h3.5v-3.5Z" fill="#397c46"/><rect width="11" height="14" transform="translate(321.611 -115.167)" fill="#fff"/><path d="M336.751-141.167h-19.28a3.865,3.865,0,0,0-3.86,3.86v36.141h27v-36.141A3.865,3.865,0,0,0,336.751-141.167Zm-13.14,38v-10h7v10Zm15.139.14h-6.139v-12.14h-11v12.14h-6.138v-34.28a2,2,0,0,1,2-2h19.28a2,2,0,0,1,2,2Z" fill="#333"/><rect width="17" height="11" rx="1" transform="translate(336.543 -113.003)" fill="#fff"/><path d="M352.543-101h-15a2,2,0,0,1-2-2v-9a2,2,0,0,1,2-2h15a2,2,0,0,1,2,2v9A2,2,0,0,1,352.543-101Zm-15-11v9h15l0-9Z" fill="#397c46"/><rect width="17" height="11" rx="1" transform="translate(340.543 -117.003)" fill="#fff"/><path d="M356.543-105h-15a2,2,0,0,1-2-2v-9a2,2,0,0,1,2-2h15a2,2,0,0,1,2,2v9A2,2,0,0,1,356.543-105Zm-15-11v9h15l0-9Z" fill="#397c46"/><rect width="11" height="2" transform="translate(343.543 -114.003)" fill="#397c46"/><rect width="7" height="2" transform="translate(343.543 -111.003)" fill="#397c46"/></g></g></svg>