<svg xmlns="http://www.w3.org/2000/svg" width="70" height="70" viewBox="0 0 70 70"><g transform="translate(-199 -678)"><circle cx="35" cy="35" r="35" transform="translate(199 678)" fill="#fff"/><g transform="translate(-291.888 786.875)"><path d="M548.717-80.628,547.3-82.043a4,4,0,0,0-5.657,0l-1.758,1.758v-7.94a3.65,3.65,0,0,0-3.65-3.65h-22.7a3.65,3.65,0,0,0-3.65,3.65v29.7a3.65,3.65,0,0,0,3.65,3.65h22.7a3.65,3.65,0,0,0,3.65-3.65v-7.62l8.829-8.827A4,4,0,0,0,548.717-80.628Z" fill="#fff"/><path d="M548.718-80.628,547.3-82.042a4.1,4.1,0,0,0-5.657,0l-1.414,1.414-.344.343v-7.94a3.654,3.654,0,0,0-3.65-3.65h-22.7a3.654,3.654,0,0,0-3.651,3.65v29.7a3.654,3.654,0,0,0,3.651,3.65h22.7a3.654,3.654,0,0,0,3.65-3.65v-7.617l7.415-7.415h0l1.414-1.415A4,4,0,0,0,548.718-80.628Zm-10.829,22.1a1.652,1.652,0,0,1-1.65,1.65h-22.7a1.652,1.652,0,0,1-1.651-1.65v-29.7a1.652,1.652,0,0,1,1.651-1.65h22.7a1.652,1.652,0,0,1,1.65,1.65v9.941L526.8-67.193l-.707,7.778,7.778-.707,4.02-4.02Zm2-10.446-2,2-4.922,4.923-4.667.424.424-4.667,9.165-9.165,2-2,.344-.344,4.242,4.243Zm7.415-7.415-1.414,1.414-4.243-4.242,1.414-1.414a2.048,2.048,0,0,1,2.829,0l1.414,1.414A2,2,0,0,1,547.3-76.386Z" fill="#333"/><rect width="16" height="2" transform="translate(516.888 -83.875)" fill="#397c46"/><rect width="16" height="2" transform="translate(516.888 -77.875)" fill="#397c46"/><rect width="9" height="2" transform="translate(516.888 -71.875)" fill="#397c46"/></g></g></svg>