<svg xmlns="http://www.w3.org/2000/svg" width="79.855" height="26.65" viewBox="0 0 79.855 26.65"><g transform="translate(-92 -1895)"><path d="M462.293,309.271a.777.777,0,0,1-.51.924c-.109.055-.151.219-.243.327-.444.523-.966.966-1.45,1.446-.165.164-.274.392-.505.505-.058.028-.111.083-.187.084-.118,0-.255-.035-.256.164,0,.029-.087.084-.13.082-.5-.032-.682.575-1.163.591-.022,0,0,.18-.1.18-.185,0-.017-.162-.054-.176a.388.388,0,0,0-.3.005,3.27,3.27,0,0,1-1.94.107c-.225-.041-.445.031-.689-.1a1.3,1.3,0,0,1-.443-.417c-.185-.282-.5-.432-.652-.741-.061-.123-.078-.248-.128-.36-.117-.27-.1-.609-.388-.8.338-.265.339-.265.065-.609-.088-.111-.177-.232.018-.312.118-.048.2-.124.116-.219a.249.249,0,0,0-.35,0c-.208.151-.432.279-.651.416a.2.2,0,0,1-.064.014c.066.28-.155.252-.314.3a1.82,1.82,0,0,0-.471.288c-.306.214-.488.567-.8.8a10.52,10.52,0,0,1-1.318,1.025c-.047.024-.128.061-.126.088.026.463-.4.5-.64.711a2.242,2.242,0,0,0-.328.584c-.067.117-.05.267-.251.329s-.032.361-.2.548c-.1.11-.135.306-.305.416-.291.189-.364.577-.673.766-.124.076-.062.262-.143.393-.185.3-.537.562-.6.843-.1.452-.636.518-.67,1-.017.238-.4.331-.6.5-.192.154-.391.268-.467.538-.034.119-.223.192-.337.291-.262.226-.5.491-.765.7-.168.13-.346.462-.675.279-.05-.028-.078,0-.12.013-.452.194-.763,0-.745-.5.01-.277-.161-.628.244-.8.034-.014.029-.15.021-.226a1.481,1.481,0,0,1,.432-1.209.894.894,0,0,0,.326-.7c-.023-.153.017-.3.231-.174a.094.094,0,0,0,.138-.055c.072-.428.484-.585.709-.892a12.755,12.755,0,0,1,1.342-1.405,1.777,1.777,0,0,1,.956-.653.532.532,0,0,0,.148-.071c-.3-.417.5-.289.319-.646.317.1.359-.45.7-.3a.1.1,0,0,0,.09-.03,5.119,5.119,0,0,1,.286-.526c.156-.269.257-.612.389-.9.086-.187-.1-.227-.043-.269.18-.124.166-.348.282-.486a2.088,2.088,0,0,0,.5-.9c.058-.243.187-.5.234-.771.011-.064.178-.154,0-.2-.112-.03-.258-.012-.258.137,0,.17-.056.213-.215.206-.068,0-.157.048-.08.155.136.188-.018.237-.146.3a1.905,1.905,0,0,0-.862.754c-.029.049-.065.136-.1.124-.336-.13-.389.229-.585.336-.14.076-.208.278-.418.243-.018,0-.054.013-.058.026-.1.383-.578.351-.724.661-.164.349-.513.342-.793.467-.1.045-.284,0-.21.213,0,.012-.053.061-.059.057-.264-.176-.531.006-.784.025a1.63,1.63,0,0,1-1.271-.523,1.084,1.084,0,0,1-.481-.943,1.658,1.658,0,0,0-.406-.915c-.117-.1-.056-.234-.062-.352,0-.1-.025-.184-.121-.22-.117-.043-.14.062-.192.133a3.729,3.729,0,0,1-.748.825,3.059,3.059,0,0,0-.741.608c-.217.292-.559.451-.743.775a.668.668,0,0,1-.344.243c-.138.05-.384-.06-.285.251a.429.429,0,0,1-.115.028.984.984,0,0,0-.86.449c-.112.158-.161.086-.209,0-.168-.293-.305-.249-.427.027-.049.109-.174.088-.183.044-.078-.351-.455-.286-.653-.478-.112-.109-.209-.176-.191-.341.014-.123-.011-.237-.163-.244-.1,0-.11-.051-.11-.129s.018-.12.118-.157c.245-.093.211-.244.035-.4a.928.928,0,0,1-.006-1.026c.179-.167.177-.164-.046-.359-.052-.046-.051-.167.006-.165.3.012.218-.194.238-.355a1.7,1.7,0,0,0-.019-.274,1.747,1.747,0,0,1,.478-1.07c.113-.163.185-.312.4-.317-.058-.223.173-.344.2-.477.056-.273.255-.4.39-.58.152-.207.337-.39.51-.582.07-.078.155-.169.042-.253-.075-.055-.181-.123-.286.009s-.214.29-.367.022c-.049-.087-.19-.07-.269.008a.671.671,0,0,1-.563.155.853.853,0,0,0-.451.1c-.136.068-.256.2-.443.113-.081-.036-.184.068-.161.124.139.336-.181.528-.313.666-.2.21-.261.514-.559.675a1.776,1.776,0,0,0-.885.8c-.115.251-.537.379-.661.669a1.555,1.555,0,0,1-.655.716c-.3.169-.27.529-.558.659s-.433.418-.713.553c-.091.043-.1.177-.172.263a5.741,5.741,0,0,1-.867.667c-.273.232-.561.462-.831.7a.852.852,0,0,1-.4.225c-.208.043-.481-.011-.586.282-.011.032-.146.028-.224.028a4.247,4.247,0,0,1-1.276-.091c-.046-.014-.064-.049-.1-.059.108-.33-.275-.514-.234-.846a8.93,8.93,0,0,0,.01-1.126c0-.133-.025-.269.151-.328.04-.013.136-.06.082-.146-.194-.307.067-.591.04-.889-.009-.1.025-.139.133-.142a.134.134,0,0,0,.136-.161c-.075-.255.031-.438.324-.627-.425-.047-.733.044-.809.317-.132.47-.548.634-.829.939a7.822,7.822,0,0,1-.689.71c-.347.288-.564.7-.949.934-.213.131-.271.465-.615.441-.1-.007-.073.2-.2.265a1.048,1.048,0,0,1-.617.2c-.194-.025-.325.167-.47.209-.253.074-.066-.26-.23-.395a3.461,3.461,0,0,1-.849-.736.942.942,0,0,0-.06-.073c.462-.416-.2-.545-.214-.836,0-.022-.015-.043-.013-.064.033-.377-.346-.264-.5-.416-.054-.053-.08.02-.112.07a.747.747,0,0,0-.062.245c-.281.014-.364.281-.548.4-.1.065-.105.135-.158.2s0,.373-.252.137c-.077-.072-.138.052-.131.147.012.169-.021.3-.232.285-.094-.007-.137.049-.106.121.089.206-.029.226-.181.219-.1,0-.156-.007-.11.136.029.089-.087.158-.185.135a.425.425,0,0,0-.443.24,1.231,1.231,0,0,1-.661.5,2.1,2.1,0,0,0-.678.531,1.2,1.2,0,0,1-.858.4c-.251.02-.475.184-.676-.092a.068.068,0,0,0-.065,0c-.294.254-.424-.037-.594-.181-.082-.069-.17-.128-.082-.277a.272.272,0,0,0-.059-.343c-.03-.027-.067-.094-.054-.114.183-.3.056-.635.073-.938.028-.5.44-.886.338-1.407-.049-.248.241-.332.352-.507a2.586,2.586,0,0,1,.457-.527.184.184,0,0,0,.052-.252c-.354-.257-.01-.426.106-.537.163-.157.328-.256.2-.511-.028-.054-.019-.152.082-.143.119.011.132-.086.15-.146.09-.311.4-.53.429-.835.035-.323.461-.436.358-.795.326-.087.145-.56.511-.656.105-.027.185-.294.208-.46.029-.206.182-.363.154-.6s.3-.316.393-.527c.018-.039.112-.059.1-.141-.068-.4.237-.6.453-.859a3.786,3.786,0,0,0,.289-.642c.064-.118-.165-.116-.2-.231.319-.131.444-.463.705-.65.061-.044.056-.121.136-.173.195-.125.217-.32.037-.569.217.139.337.122.283-.1-.093-.383.29-.526.4-.807.011-.029.126-.142.12-.161-.058-.174-.079-.308.172-.3a.067.067,0,0,0,.047-.045c.054-.548.492-.888.726-1.338.036-.069.039-.087-.029-.153-.156-.151-.275-.4-.533-.227-.137.094-.186.088-.3-.012-.2-.174-.458-.027-.69-.054a2.2,2.2,0,0,0-1.162-.047c-.041-.081.1-.188-.012-.252-.095-.055-.164.014-.234.08a.249.249,0,0,1-.287.03c-.208-.193-.452-.131-.678-.12-.493.024-.978-.081-1.468-.072a20.349,20.349,0,0,0-2.305.093c-.29.039-.578-.089-.85.041s-.66.1-.877.236c-.34.219-.654-.068-.952.1-.069.039-.175-.009-.178.136,0,.1-.09.145-.195.144-.179,0-.354-.007-.285.27.018.071-.116.176-.148.127-.128-.192-.357-.5-.293-.6.144-.212-.04-.323-.024-.468.033-.3-.215-.662.2-.872a.141.141,0,0,0,.068-.146c-.053-.6.527-.623.807-.922.339-.363.9-.088,1.193-.5.029-.042.15-.035.226-.027a2.354,2.354,0,0,0,.974-.037c.352-.132.648.035.967.011a4.935,4.935,0,0,1,.927.042c.27.032.537.03.8.052.217.017.452-.072.644.121.041.041.16.032.231.01.214-.067.428-.2.6.071.065-.054.223.125.228-.12,0-.178.137-.051.165.006.076.158.205.165.352.188.349.053.729-.149,1.055.127.041.035.1-.015.148-.055.129-.112.246-.146.343.047.057.112.235.12.263.065.15-.29.253-.124.421-.016.091.059.322.245.406-.069.015-.057.1-.032.093-.007-.032.272.2.1.283.169s.361-.135.3.189c.112.016.244.089.319-.053.082-.157.163-.185.28-.033a.3.3,0,0,0,.333.1c.153-.032.059-.168.075-.256.075-.4.1-.806.51-1.059.08-.05.043-.29.065-.482.257.2.379.557.754.517-.019.25.254.335.306.534.032.122.012.238.172.287.07.021.059.159.016.171-.164.048-.2.152-.1.259s.214.221.4.138c.246-.108.58.086.772-.222a.034.034,0,0,1,.028-.013c.216.08.39.348.659-.008.148-.2.511-.034.775-.064.045-.005.117.017.133,0,.391-.539.428.251.7.145-.307.255-.306.254-.075.652a.191.191,0,0,1,.007.1c-.327.042-.073.522-.415.55-.063.005-.063.062-.058.1.052.487-.284.545-.643.669a1.476,1.476,0,0,1-.654.185.059.059,0,0,0-.061.089c.054.076.036.135-.036.157-.054.016-.085-.051-.109-.1-.118-.233-.224-.215-.348,0-.1.175-.241.184-.331,0-.135-.274-.312-.153-.4-.018-.118.176-.187.155-.3.023-.154-.185-.283-.2-.424.029-.114.183-.219.04-.314-.046-.2-.184-.166-.1-.358.049-.349.278-.247.691-.422.992a2.327,2.327,0,0,0-.291,1.047c-.017.2-.255.436-.374.669a.436.436,0,0,0-.053.141c-.014.173.021.314-.227.416-.143.059-.228.355-.359.537a2.4,2.4,0,0,1-.212.325c-.03.031-.126.075-.052.122.311.2-.022.273-.047.408-.048.27-.312.445-.271.738s-.079.262-.308.034c.164.544-.2.78-.434,1.069-.034.041-.1.079-.071.121.309.441-.129.707-.29.985a4.815,4.815,0,0,0-.26.661c-.027.066.048.176-.049.209-.121.041-.126-.116-.256-.194.181.342-.134.433-.206.614-.131.327-.292.655-.409.992-.1.275-.124.655-.453.831-.027.014-.064.06-.058.079.131.417-.264.631-.373.954-.027.079.009.094.034.131a.255.255,0,0,0,.305.087,2.8,2.8,0,0,0,.933-.46c.127-.105.226-.247.387-.055.03.036.108.06.114.027.047-.26.556-.114.443-.508-.013-.045.021-.1.073-.087.287.082.359-.241.578-.3.156-.044.114-.2.027-.306-.139-.168-.068-.3-.025-.492a4.886,4.886,0,0,1,.336-.759c.12-.3.28-.689.707-.767.145-.026.178-.182.268-.272a7.46,7.46,0,0,1,.662-.747c.475-.344.636-1,1.282-1.184.163-.047.527-.127.586-.453.01-.058.093-.052.15-.051.143,0,.259.031.3-.2.02-.125.317-.154.475-.189.273-.06.41-.427.747-.3.036.013.06-.063.05-.107-.063-.288.1-.32.323-.294s.358-.169.512-.28c.258-.187.557-.129.83-.178.317-.057.5-.325.789-.391.019,0,.026-.058.038-.089a.2.2,0,0,1,.023.023c.2.271.328.152.445-.079a7.78,7.78,0,0,1,1.612,0c.212.31.635.516.491,1.006a.232.232,0,0,0,.07.209c.162.085.276.226.183.367a.532.532,0,0,1-.437.225c-.25-.011-.233.146-.319.315-.194.379-.011.587.229.789.219.184.127.4.146.622a1,1,0,0,1-.347.9,8.044,8.044,0,0,1-.742.734c-.237.152-.121.465-.28.666-.048.061-.023.17-.155.155s-.147.105-.216.164c-.235.2-.3.5-.48.727-.072.093-.1.191.032.271.176.1.183.226.007.333s-.11.241-.044.337a1.147,1.147,0,0,0,1.319.554c.286-.075.64.029.835-.306a.133.133,0,0,1,.124-.028c.389.169.509-.146.671-.373a1.314,1.314,0,0,1,.53-.416.893.893,0,0,0,.586-.669c.019-.082.117-.086.179-.125a4.3,4.3,0,0,0,.868-.747c.1-.113-.108-.589-.279-.6-.213-.019-.233-.13-.23-.295,0-.125.074-.312-.2-.23-.057.017-.062-.092,0-.144.115-.095.185-.187.073-.343-.05-.07-.182-.216.075-.244.1-.011.039-.156.047-.239.016-.157-.047-.326.16-.427.1-.051.026-.1-.052-.152-.138-.1-.243-.237.064-.262.2-.016.135-.245.259-.361.4-.369.737-.8,1.125-1.18.137-.135.084-.381.346-.5a1.214,1.214,0,0,0,.615-.409c.026-.045.112-.077.157-.148.085-.137.193-.262.271.014a.166.166,0,0,0,.176.13c.107,0,.091.075.094.14s-.005.144-.1.132c-.174-.023-.181.082-.171.207,0,.045.018.117,0,.133-.467.329.014.432.139.626a.118.118,0,0,0,.167.051c.218-.24.493-.111.743-.127a1,1,0,0,0,.491-.067c.028-.017.069-.013.093-.032.076-.065-.21-.215.051-.238.12-.011.153.126.24.17.056.028.172.05.19.024.235-.324.565-.211.879-.226a2.587,2.587,0,0,1,1.243.091c.074.033.147.019.142.132-.007.172.073.259.215.383s.095.443.073.682c-.014.161-.09.348.181.386a.1.1,0,0,1,.046.179,2.266,2.266,0,0,0-.6.775,1.044,1.044,0,0,1-.381.309,1.411,1.411,0,0,0-.472.534c-.131.233-.493.335-.435.676.015.086-.028.124-.116.119-.054,0-.146-.014-.146.047,0,.482-.512.582-.688.933-.165.329-.46.606-.411,1.015.022.183-.2.3-.053.543a.884.884,0,0,0,.722.471,2.7,2.7,0,0,0,1.129-.208.951.951,0,0,0,.538-.433.861.861,0,0,1,.566-.459,1.134,1.134,0,0,0,.54-.217c.184-.184.561-.288.453-.686-.049-.182.182-.11.248-.246a9.61,9.61,0,0,1,.538-1,2.947,2.947,0,0,0,.511-.867c0-.019.027-.048.041-.047.371.018.388-.36.592-.525a.414.414,0,0,1,.273-.1c.114,0,.2-.029.126-.176a.144.144,0,0,1,0-.063c.371-.017.3-.483.625-.591a2.594,2.594,0,0,0,.952-.452c.126-.111.145-.255.242-.37.233-.276.542-.252.825-.32.125-.03.277-.108.255-.172-.13-.375.194-.279.328-.3a1.986,1.986,0,0,0,.716-.323c.3-.2.663-.207.967-.373.113-.062.262-.08.3-.272.237.276.468.291.691.005.054-.069.129-.118.191-.019.092.146.157.318.378.158.037-.027.081.018.083.073s-.008.127.006.131c.524.166.128.6.263.886.047.1-.052.2-.123.217-.332.067-.447.356-.64.57-.052.058-.162.062-.241.1s-.386-.134-.23.2c.024.051-.043.072-.088.068-.175-.016-.323.16-.41.163a.871.871,0,0,0-.552.284c-.2.184-.377.353-.67.314.024.436-.462.2-.619.474a1.54,1.54,0,0,1-.68.526c-.237.105-.363.434-.68.361a.272.272,0,0,0-.068,0c.056.316-.4.32-.372.55s-.135.138-.149.122c-.207-.222-.241.068-.353.115-.016.007-.024.035-.035.054.5.291-.347.274-.115.5a1.4,1.4,0,0,0-.589.292c-.031.029-.109.054-.107.065.082.314-.281.421-.312.678a.231.231,0,0,1-.071.181c-.165.132-.175.218.018.376.251.205.035.351-.159.453.036.122.185.1.211.212.1.434.477.428.806.493.022,0,.055.01.067,0a4.192,4.192,0,0,1,1.2-.618c.267-.137.388-.44.6-.647a5.887,5.887,0,0,1,1.522-1.333c.42-.192.494-.586.81-.8.156-.1.278-.269.411-.371a.75.75,0,0,0,.237-.444c.049-.142.014-.307.166-.417.119-.087-.2-.1-.049-.207.068-.048.138.044.236,0,.119-.056.09-.133.118-.214.037-.1.158-.053.24-.077.044-.013.114-.09.106-.105-.126-.252.019-.3.221-.3.061,0,.061-.047.074-.091.136-.476.28-.547.786-.6a5.119,5.119,0,0,1,.956.01c.146.011.227.044.242.211.036.421-.085.839-.007,1.26a.151.151,0,0,1-.049.117,1.217,1.217,0,0,0-.374.844c-.027.216-.236.393-.406.554-.043.041-.159.036-.12.126.135.314-.126.562-.247.724-.232.308-.331.729-.684.932a.175.175,0,0,0-.09.245c.247.348-.059.528-.234.7s-.062.327-.018.48c.013.045.133.092.2.083.082-.011.117-.079.059-.176-.027-.045-.039-.162.066-.148.507.067.749-.434,1.175-.536.068-.016.084-.077.122-.126a1.638,1.638,0,0,1,.963-.726,2.3,2.3,0,0,0,.588-.268.214.214,0,0,0-.02-.379c-.189-.1-.084-.1,0-.177.4-.365.4-.37.31-.918.193.1.384.07.388-.148s.132-.215.267-.229c-.084-.206-.1-.377.148-.461.031-.01.077-.023.086-.046.258-.685,1.013-.967,1.313-1.625.061-.133.288-.173.428-.216a1.113,1.113,0,0,0,.682-.671c.092-.176.419-.279.657-.32a1.957,1.957,0,0,0,1.011-.559.346.346,0,0,1,.189-.12,11.133,11.133,0,0,1,1.715-.4,2.689,2.689,0,0,1,.774.027c.334.111.809.184.815.721,0,.053.077.1.115.159s.089.126.079.135c-.24.242-.15.474,0,.716a.13.13,0,0,1-.06.178c-.255.1-.233.313-.2.5.051.333-.25.46-.379.68a5.158,5.158,0,0,1-.891.966,9.261,9.261,0,0,1-.8.631c-.181.145-.393.123-.571.229,0,.119.243.146.153.287-.063.1-.2.1-.324.037-.037-.018-.126.037-.174.078a1.048,1.048,0,0,1-.755.188,1.014,1.014,0,0,0-.793.333c-.119.131-.339.146-.364.406-.014.146-.189.07-.223-.059-.069-.259-.154-.157-.229-.016a.273.273,0,0,1-.251.16.665.665,0,0,0-.618.724c0,.148-.007.3,0,.444s-.092.369.213.335c.021,0,.073.066.069.1-.037.286.389.306.338.6.282-.054.4.331.687.259.378-.093.76.033,1.146-.032a4.351,4.351,0,0,0,.867-.417,3.916,3.916,0,0,1,.568-.227.794.794,0,0,0,.365-.21,6.222,6.222,0,0,1,1-.715c.047-.028.107-.076.114-.123.06-.364.363-.389.631-.463a1.034,1.034,0,0,1,.132-.019c-.065-.344.378-.227.439-.487.027-.117.24-.114.345-.24a2.041,2.041,0,0,1,.553-.453c.234-.133.273-.279.111-.511.221.022.4.022.347-.257-.016-.082-.012-.157.115-.1.026.011.114-.046.111-.056-.077-.3.288-.337.341-.589.041-.2.31-.309.461-.485a13.6,13.6,0,0,0,.886-1.131.2.2,0,0,1,.044-.051c.1-.072.346-.119.2-.269a.866.866,0,0,0-.534-.231c-.417-.04-.83.043-1.245,0a.393.393,0,0,0-.385.148.627.627,0,0,1-.793,0,.138.138,0,0,1-.01-.084c.333-.082.159-.547.482-.638.036-.01.091-.083.083-.1-.2-.355.243-.51.254-.809a.308.308,0,0,1,.282-.275c.131-.007.187-.137.25-.241.141-.232.194-.541.554-.584.068-.008.113-.235.178-.241.2-.017.364-.3.614-.1.044.036.262.1.3-.093.049-.253.224-.256.417-.238.374.035.747-.065,1.123,0,.159.026.337.039.372-.251-.021.262.116.258.264.257.169,0,.215-.092.209-.239,0-.091-.016-.184.129-.179.042,0,.128-.077.123-.091-.128-.323.321-.378.3-.648,0-.018.02-.054.029-.053.431.028.347-.435.573-.6.341-.252.535-.763,1.1-.62.094.024.174-.045.251-.106a1.03,1.03,0,0,1,1.221.152c.031.041.05.086,0,.116-.417.277-.385.872-.791,1.138-.182.119-.3.289-.473.407a1.113,1.113,0,0,0-.293.888c.023.061-.034.172.1.178a.258.258,0,0,0,.236-.167c.1-.189.143-.2.268-.019.049.073.062.165.171.186.174.032.295-.013.3-.23a.574.574,0,0,1,.145.626,2.175,2.175,0,0,1-.449.649c-.163.193-.375.346-.528.545-.107.139-.306.278-.168.512a.141.141,0,0,1,0,.1c-.288.061-.148.47-.451.537-.155.034-.092.272-.233.37-.174.121-.315.309-.547.1a.334.334,0,0,0-.351-.057c-.271.129-.53.01-.788-.01a.929.929,0,0,0-1.047,1,.357.357,0,0,1-.095.237,8.613,8.613,0,0,0-.852,1.128,4.243,4.243,0,0,0-.358.868.982.982,0,0,1-.406.554c-.115.084-.179.189-.118.261.267.315-.141.54-.085.819-.117-.052-.2-.052-.2.113a.757.757,0,0,0,.134.336.166.166,0,0,1,0,.1.9.9,0,0,0,.578,1.084c.034.013.064.086.106.026.163-.232.33-.171.528-.038.069.046.186.01.277-.07a.423.423,0,0,1,.492-.094c.133.068.205-.039.292-.085.214-.114.407-.279.677-.223a.126.126,0,0,0,.094-.021.823.823,0,0,1,.822-.25c.288.04.5-.17.7-.294a.942.942,0,0,1,.574-.183c.2.008.38-.028.451-.241.042-.126.129-.1.214-.1.3,0,.618.053.834-.243a.074.074,0,0,1,.059-.026c.426.068.749-.34,1.118-.3.308.033.5-.132.747-.157.186-.02.259-.016.258-.205,0-.137.107-.09.174-.092a1.206,1.206,0,0,0,.881-.234c.138-.121.459-.057.694-.037a1.323,1.323,0,0,0,1.265-.505c.012-.016.032-.04.047-.039.488.029.852-.411,1.351-.352a1.849,1.849,0,0,0,.857-.366.132.132,0,0,1,.088-.038,1.816,1.816,0,0,0,1.136-.272c.14-.088.387.04.455-.248a1.416,1.416,0,0,1,.563-.13c.168-.005.369.152.437-.144,0-.009.02-.022.025-.02.327.136.5-.3.818-.215a.2.2,0,0,0,.186-.053,1.118,1.118,0,0,1,.906-.356c.027-.312.434-.117.533-.41.041-.122.365-.133.574-.138.143,0,.278.029.412-.117.113-.123.312-.057.419.092a.311.311,0,0,1-.009.438c-.031.032-.094.052-.1.085-.09.507-.582.608-.875.906-.177.18-.416.235-.588.431a1.493,1.493,0,0,1-.633.284c-.215.062-.428.119-.53.353-.075.171-.255.155-.4.189s-.31-.041-.253.251c.03.152-.253.082-.39.152a6.847,6.847,0,0,1-1.645.379,2.06,2.06,0,0,0-1.02.576c-.062.058-.142.128-.206.077-.287-.229-.472.015-.685.131-.029.016-.059.07-.074.064-.345-.121-.558.277-.884.223-.06-.01-.141.016-.144.065-.02.374-.293.267-.5.274a.477.477,0,0,0-.477.231.9.9,0,0,1-.814.325c-.093-.014-.357-.128-.255.185a1.62,1.62,0,0,0-.56.222c-.307.137-.69.038-.946.336-.112.13-.4.009-.448.271,0,0-.085.006-.093-.01-.188-.362-.326-.042-.509.01-.26.074-.439.357-.754.28-.115-.028-.2.078-.3.114-.228.08-.41.345-.711.164a.2.2,0,0,0-.285.1c-.058.241-.366.2-.437.411-.005.017-.066.031-.092.022-.134-.049-.289-.241-.357.066-.314-.126-.484.232-.784.224s-.622-.064-.839.242c-.025.035-.129.017-.2.018a.524.524,0,0,0-.5.189.362.362,0,0,1-.44.1.34.34,0,0,0-.447.137c-.12.209-.422.109-.54.321a.036.036,0,0,1-.032,0c-.276-.448-.537.077-.821.015-.314-.069-.585.152-.872.229a.892.892,0,0,1-.983-.144.233.233,0,0,0-.144-.074c-.3-.019-.347-.2-.323-.459.016-.16.02-.321-.2-.4-.056-.019-.066-.214-.069-.329a8.549,8.549,0,0,0-.014-.921c-.031-.22.191-.226.233-.4.094-.4-.011-.8.093-1.192.03-.115,0-.228.143-.311.179-.1,0-.369.107-.464.283-.252-.039-.247-.121-.31s-.125.042-.169.11c-.065.1.182.047.07.143-.148.126-.362.177-.433.39Zm-33.43-4.964a1.323,1.323,0,0,1-.93.387.479.479,0,0,0-.439.2,1.286,1.286,0,0,1-.66.446c-.292.054-.489.274-.768.357a3.43,3.43,0,0,0-.538.3,1.54,1.54,0,0,1-.727.348c-.1,0-.194.095-.283.158a7.565,7.565,0,0,1-.75.535c-.251.135-.29.586-.7.468-.009,0-.053.057-.047.069.17.307-.1.188-.2.193-.584.035-.8.314-.7.9a.616.616,0,0,1,0,.3,5.134,5.134,0,0,0-.057,1.162c-.048.342.38.331.49.571,0,.006.113-.016.116-.034.047-.28.413-.185.5-.456.064-.189.348,0,.563-.223.309-.321.405-.229.718-.671a.146.146,0,0,1,.116-.044.607.607,0,0,0,.5-.284,11.119,11.119,0,0,1,1.261-1.164c.265-.237.436-.563.722-.789.084-.066.207-.083.257-.2a1.166,1.166,0,0,1,.552-.739c.018-.013.047-.039.043-.05-.12-.336.5-.252.343-.606.326-.171.275-.573.5-.815C428.808,304.558,428.961,304.47,428.863,304.307Zm27.686,3.7c.33-.118.679-.114.951-.482a3.358,3.358,0,0,1,1.248-.811c.085-.044.234-.065.195-.189-.057-.181.04-.179.158-.184.055,0,.122.009.124-.073.009-.362.347-.538.475-.837a6.248,6.248,0,0,1,.4-.565.513.513,0,0,0,0-.623c-.178-.208-.335,0-.5.052a3.635,3.635,0,0,1-1.1.337c-.069,0-.166-.01-.176.065-.033.242-.246.32-.386.466-.305.32-.638.615-.931.941-.141.157-.418.317-.309.628a.113.113,0,0,1-.078.132c-.245-.007-.186.169-.188.3,0,.074-.016.154-.084.17-.358.084-.186.368-.175.543C456.183,308.1,456.412,307.915,456.549,308Z" transform="translate(-317.375 1600.785)" fill="#248285"/><path d="M912.415,351.832c-.125.1-.357-.084-.353.207,0,.064-.116.035-.174.03a.76.76,0,0,0-.733.431,1.842,1.842,0,0,1-.623.6,1.584,1.584,0,0,0-.483.431,3.6,3.6,0,0,1-.753.649c-.082.059-.214.03-.208-.152.013-.375-.007-.752.008-1.127a1.118,1.118,0,0,1,.828-.756.47.47,0,0,0,.508-.321c.062-.311.265-.371.5-.437a.176.176,0,0,0,.142-.2c-.006-.093.015-.151.128-.142s.221-.019.169-.182c0-.012.024-.046.041-.05.487-.09.416-.754.886-.86-.006-.27.363-.324.347-.6,0-.069,0-.145.067-.181.371-.188.2-.553.251-.833.035-.187-.485-.454-.777-.4-.092.016-.142.019-.2-.041-.164-.172-.323-.26-.478.013a.106.106,0,0,1-.193.006c-.3-.414-.725-.174-1.088-.2a5.1,5.1,0,0,0-.71-.017c-.117.008-.228.006-.16.18.03.077-.031.1-.094.093-.042,0-.077,0-.1-.06-.116-.272-.193-.3-.354-.089-.117.149-.161.253-.317.017a.225.225,0,0,0-.419.046c-.026.067-.05.094-.112.088a13.237,13.237,0,0,1-1.924-.065c-.06-.015-.14.021-.154-.081a.159.159,0,0,1,.084-.172c.158-.081.17-.211.2-.374a1.927,1.927,0,0,1,.645-1.025c.18-.163.395-.555.793-.406.135-.334.472-.232.671-.211.327.035.625-.127.959-.038.245.066.537-.175.794.049.465-.248.916.074,1.38.041.193-.014.409-.1.605.027a2.2,2.2,0,0,0,1.119.228,3.659,3.659,0,0,1,.9.291,3.164,3.164,0,0,1,.761.249c.059.037.162.027.174.133a3.638,3.638,0,0,1-.018,1.518,2.838,2.838,0,0,1-.829,1.444c-.151.116-.23.29-.4.377a.206.206,0,0,0-.123.147,1.847,1.847,0,0,1-.614.875c-.037.039-.111.062-.122.1-.06.224-.134.37-.425.4C912.24,351.5,912.374,351.713,912.415,351.832Z" transform="translate(-743.187 1556.76)" fill="#248285"/></g></svg>