<svg xmlns="http://www.w3.org/2000/svg" width="28" height="28" viewBox="0 0 28 28"><path d="M0,0H28V28H0Z" fill="none"/><g transform="translate(3 2.507)"><path d="M1140.048,769.423c-11.356-1.139-18.086-9.391-17.981-17.844a2.021,2.021,0,0,1,1.728-1.957l4.693-.7,3.052,5.347-2.562,2.45s1.165,3.9,6.551,5.852l1.722-2.858,5.945,2.81-.941,5.236A2.038,2.038,0,0,1,1140.048,769.423Z" transform="translate(-1122.066 -747.187)" fill="none" stroke="#397c46" stroke-linecap="round" stroke-linejoin="round" stroke-width="2"/><g transform="translate(15.338)"><path d="M1134.418,751.479l.078,0h0a2.044,2.044,0,0,1,2.044,2.044" transform="translate(-1134.418 -747.187)" fill="none" stroke="#397c46" stroke-linecap="round" stroke-linejoin="round" stroke-width="2"/><path d="M1134.418,747.192c.077,0,.154-.005.231-.005h0a6.086,6.086,0,0,1,6.086,6.086" transform="translate(-1134.418 -747.187)" fill="none" stroke="#397c46" stroke-linecap="round" stroke-linejoin="round" stroke-width="2"/></g></g></svg>