<svg xmlns="http://www.w3.org/2000/svg" width="70" height="70" viewBox="0 0 70 70"><g transform="translate(-199 -678)"><circle cx="35" cy="35" r="35" transform="translate(199 678)" fill="#fff"/><g transform="translate(35.205 838)"><path d="M205.56-107.839l.235-.157,5.609-3.34a6.256,6.256,0,0,0,2.2-2.228l4.1-9.442a.752.752,0,0,0,.076-.593.723.723,0,0,0-.352-.431.739.739,0,0,0-.932.194l-3.589,7.262a2.483,2.483,0,0,1-1.009,2.47l-5.12,3.481-.5.925-1.748-.947.728-1.355,5.514-3.75a.475.475,0,0,0,.148-.594.456.456,0,0,0-.265-.234.456.456,0,0,0-.352.023l-8.839,4.363a4.5,4.5,0,0,0-1.339,1.068c-.838,1.035-.836,1.278-.811,3.174l0,3h-2.044l0-3c.024-1.9.027-2.139-.828-3.194a4.5,4.5,0,0,0-1.34-1.058l-8.822-4.353a.456.456,0,0,0-.352-.023.458.458,0,0,0-.264.234.477.477,0,0,0,.155.6L191.33-112l.728,1.355-1.748.947-.5-.925L184.7-114.1a2.49,2.49,0,0,1-1.018-2.475l-3.588-7.262a.739.739,0,0,0-.932-.194.728.728,0,0,0-.353.431.729.729,0,0,0,.056.555l.066.13,4.05,9.35a6.245,6.245,0,0,0,2.2,2.227l5.843,3.5c.9.6,1.125,1.224,1.1,3.052H204.46C204.435-106.615,204.662-107.242,205.56-107.839Z" fill="#fff"/><path d="M182.891-122.765l-.039.02,2.175,4.4a2.431,2.431,0,0,1,1.439-.21l-2.045-3.855A1.207,1.207,0,0,0,182.891-122.765Z" fill="#fff"/><path d="M212.123-122.336l-2,3.781a2.438,2.438,0,0,1,1.443.211l2.18-4.4-.044-.022A1.215,1.215,0,0,0,212.123-122.336Z" fill="#fff"/><path d="M206.505-106.07a1.141,1.141,0,0,1,.151-.105l5.761-3.446a8.224,8.224,0,0,0,2.939-3l4.117-9.481a2.718,2.718,0,0,0,.2-2.074,2.7,2.7,0,0,0-1.315-1.612,2.716,2.716,0,0,0-3.545.875l-.19.385-.04-.02a3.217,3.217,0,0,0-4.174,1.2l-3.246,6.118-6.6,3.257A6.539,6.539,0,0,0,198.6-112.4c-.116.144-.21.275-.307.408-.1-.139-.2-.277-.323-.428a6.514,6.514,0,0,0-1.97-1.558l-6.58-3.248-3.289-6.192A3.2,3.2,0,0,0,182-124.549l-.034.017-.13-.264-.069-.118a2.717,2.717,0,0,0-3.544-.874,2.7,2.7,0,0,0-1.316,1.612,2.755,2.755,0,0,0,.213,2.085l4.061,9.373.048.1a8.229,8.229,0,0,0,2.938,3l5.6,3.339.158.107a.544.544,0,0,0,.122.067,3.9,3.9,0,0,1,.088,1.294l1.986.027c.024-1.828-.2-2.455-1.1-3.052l-5.843-3.5a6.245,6.245,0,0,1-2.2-2.227l-4.05-9.35-.066-.13a.729.729,0,0,1-.056-.555.728.728,0,0,1,.353-.431.739.739,0,0,1,.932.194l3.588,7.262A2.49,2.49,0,0,0,184.7-114.1l5.111,3.476.5.925,1.748-.947L191.33-112l-5.506-3.745a.477.477,0,0,1-.155-.6.458.458,0,0,1,.264-.234.456.456,0,0,1,.352.023l8.822,4.353a4.5,4.5,0,0,1,1.34,1.058c.855,1.055.852,1.3.828,3.194l0,3.162h2.044l0-3.162c-.025-1.9-.027-2.139.811-3.174a4.5,4.5,0,0,1,1.339-1.068l8.839-4.363a.456.456,0,0,1,.352-.023.456.456,0,0,1,.265.234.475.475,0,0,1-.148.594L205.257-112l-.728,1.355,1.748.947.5-.925,5.12-3.481a2.483,2.483,0,0,0,1.009-2.47l3.589-7.262a.739.739,0,0,1,.932-.194.723.723,0,0,1,.352.431.752.752,0,0,1-.076.593l-4.1,9.442a6.256,6.256,0,0,1-2.2,2.228L205.795-108l-.235.157c-.9.6-1.125,1.224-1.1,3.052l1.986-.027A6.221,6.221,0,0,1,206.505-106.07Zm-21.478-12.275-2.175-4.4.039-.02a1.207,1.207,0,0,1,1.53.355l2.045,3.855A2.431,2.431,0,0,0,185.027-118.345Zm26.535,0a2.438,2.438,0,0,0-1.443-.211l2-3.781a1.215,1.215,0,0,1,1.575-.428l.044.022Z" fill="#333"/><rect width="17" height="11" rx="1" transform="translate(188 -137)" fill="#fff"/><path d="M204-125H189a2,2,0,0,1-2-2v-9a2,2,0,0,1,2-2h15a2,2,0,0,1,2,2v9A2,2,0,0,1,204-125Zm-15-11v9h15v-9Z" fill="#397c46"/><rect width="17" height="11" rx="1" transform="translate(192 -141)" fill="#fff"/><path d="M208-129H193a2,2,0,0,1-2-2v-9a2,2,0,0,1,2-2h15a2,2,0,0,1,2,2v9A2,2,0,0,1,208-129Zm-15-11v9h15v-9Z" fill="#397c46"/><rect width="11" height="2" transform="translate(195 -138)" fill="#397c46"/><rect width="7" height="2" transform="translate(195 -135)" fill="#397c46"/></g></g></svg>