<svg xmlns="http://www.w3.org/2000/svg" width="70" height="70" viewBox="0 0 70 70"><g transform="translate(-199 -678)"><circle cx="35" cy="35" r="35" transform="translate(199 678)" fill="#fff"/><g transform="translate(-155.556 786)"><path d="M395.9-60a3.657,3.657,0,0,0,3.653-3.653V-88.347A3.657,3.657,0,0,0,395.9-92h-17.7a3.657,3.657,0,0,0-3.652,3.653v24.694a3.653,3.653,0,0,0,3,3.587,3.594,3.594,0,0,0,.652.066h17.7Z" fill="#fff"/><path d="M401.556-85.934v22.281A5.66,5.66,0,0,1,395.9-58H379.556v.347A3.657,3.657,0,0,0,383.208-54h17.7a3.657,3.657,0,0,0,3.653-3.653V-82.347A3.654,3.654,0,0,0,401.556-85.934Z" fill="#fff"/><path d="M401.556-87.959v-.388A5.66,5.66,0,0,0,395.9-94h-17.7a5.659,5.659,0,0,0-5.652,5.653v24.694a5.658,5.658,0,0,0,5,5.612v.388A5.659,5.659,0,0,0,383.208-52h17.7a5.66,5.66,0,0,0,5.653-5.653V-82.347A5.659,5.659,0,0,0,401.556-87.959ZM378.208-60a3.594,3.594,0,0,1-.652-.066,3.653,3.653,0,0,1-3-3.587V-88.347A3.657,3.657,0,0,1,378.208-92h17.7a3.657,3.657,0,0,1,3.653,3.653v24.694A3.657,3.657,0,0,1,395.9-60h-17.7Zm26.348,2.347A3.657,3.657,0,0,1,400.9-54h-17.7a3.657,3.657,0,0,1-3.652-3.653V-58H395.9a5.66,5.66,0,0,0,5.653-5.653V-85.934a3.654,3.654,0,0,1,3,3.587Z" fill="#333"/><path d="M381.026-81.286l-2.807-2.807,1.414-1.414,1.393,1.393,2.446-2.446,1.414,1.414Z" fill="#397c46"/><rect width="9" height="2" transform="translate(386.056 -85)" fill="#397c46"/><rect width="9" height="2" transform="translate(386.056 -77)" fill="#397c46"/><circle cx="2" cy="2" r="2" transform="translate(379.056 -78)" fill="#397c46"/><rect width="9" height="2" transform="translate(386.056 -69)" fill="#397c46"/><circle cx="2" cy="2" r="2" transform="translate(379.056 -70)" fill="#397c46"/></g></g></svg>