<svg xmlns="http://www.w3.org/2000/svg" width="70" height="70" viewBox="0 0 70 70"><g transform="translate(-199 -678)"><circle cx="35" cy="35" r="35" transform="translate(199 678)" fill="#fff"/><g transform="translate(-364.056 788.028)"><path d="M615.136-82.028h-.58v-7.683a24.186,24.186,0,0,0-4.5-.311v-2.006a16.643,16.643,0,0,0-11.993,6.264l-.007.007c-7.219-4.943-16.5-1.977-16.5-1.977v5.706h-.581a3.919,3.919,0,0,0-3.919,3.919v16.162a3.918,3.918,0,0,0,3.919,3.919h34.161a3.919,3.919,0,0,0,3.92-3.919V-78.109A3.92,3.92,0,0,0,615.136-82.028Z" fill="#fff"/><path d="M615.136-82.028h-.58v2h.58a1.922,1.922,0,0,1,1.92,1.919v16.162a1.922,1.922,0,0,1-1.92,1.919H580.975a1.921,1.921,0,0,1-1.919-1.919V-78.109a1.921,1.921,0,0,1,1.919-1.919h.581v-2h-.581a3.919,3.919,0,0,0-3.919,3.919v16.162a3.918,3.918,0,0,0,3.919,3.919h34.161a3.919,3.919,0,0,0,3.92-3.919V-78.109A3.92,3.92,0,0,0,615.136-82.028Z" fill="#397c46"/><path d="M610.53-90.028c-.154,0-.315,0-.474.006v-2.006a16.638,16.638,0,0,0-11.993,6.265l-.007.006A17.666,17.666,0,0,0,588-88.616a23.32,23.32,0,0,0-6.443.882V-64a41,41,0,0,1,6.468-.554c7.393,0,10.032,2.531,10.032,2.531s5.94-3.8,12.012-3.8a11.751,11.751,0,0,1,4.488.83V-89.711A23.575,23.575,0,0,0,610.53-90.028Zm-2.474,2.13v17.172a21.847,21.847,0,0,0-8,4.239V-85.066a14.631,14.631,0,0,1,8-4.648ZM588.024-66.559a40.213,40.213,0,0,0-4.468.263V-86.167A22.742,22.742,0,0,1,588-86.616a15.483,15.483,0,0,1,8.926,2.51l1.131.773v18.9C596.431-65.349,593.291-66.559,588.024-66.559Zm24.532-13.469v12.4a15.047,15.047,0,0,0-2.488-.2,21.052,21.052,0,0,0-5.838.9c3.579-2.1,5.826-2.109,5.826-2.109V-88.022c.159,0,.319-.006.474-.006.77,0,1.459.037,2.026.083v7.917Z" fill="#333"/><rect width="6" height="2" transform="translate(588.056 -81.028)" fill="#397c46"/><rect width="6" height="2" transform="translate(588.056 -77.028)" fill="#397c46"/><rect width="3" height="2" transform="translate(588.056 -73.028)" fill="#397c46"/></g></g></svg>